<?xml version="1.0" encoding="UTF-8" standalone="no"?>
<!-- Created with Inkscape (http://www.inkscape.org/) -->

<svg
   xmlns:dc="http://purl.org/dc/elements/1.1/"
   xmlns:cc="http://creativecommons.org/ns#"
   xmlns:rdf="http://www.w3.org/1999/02/22-rdf-syntax-ns#"
   xmlns:svg="http://www.w3.org/2000/svg"
   xmlns="http://www.w3.org/2000/svg"
   xmlns:sodipodi="http://sodipodi.sourceforge.net/DTD/sodipodi-0.dtd"
   xmlns:inkscape="http://www.inkscape.org/namespaces/inkscape"
   version="1.1"
   id="svg815"
   width="96"
   height="58.240002"
   viewBox="0 0 96 58.240002"
   sodipodi:docname="shrimp.svg"
   inkscape:version="0.92.4 (5da689c313, 2019-01-14)">
  <metadata
     id="metadata821">
    <rdf:RDF>
      <cc:Work
         rdf:about="">
        <dc:format>image/svg+xml</dc:format>
        <dc:type
           rdf:resource="http://purl.org/dc/dcmitype/StillImage" />
        <dc:title></dc:title>
      </cc:Work>
    </rdf:RDF>
  </metadata>
  <defs
     id="defs819">
    <inkscape:path-effect
       effect="skeletal"
       id="path-effect841"
       is_visible="true"
       pattern="M 0,5 C 0,2.24 2.24,0 5,0 7.76,0 10,2.24 10,5 10,7.76 7.76,10 5,10 2.24,10 0,7.76 0,5 Z"
       copytype="single_stretched"
       prop_scale="1"
       scale_y_rel="false"
       spacing="0"
       normal_offset="0"
       tang_offset="0"
       prop_units="false"
       vertical_pattern="false"
       fuse_tolerance="0" />
    <inkscape:path-effect
       effect="simplify"
       id="path-effect839"
       is_visible="true"
       steps="1"
       threshold="0.5"
       smooth_angles="360"
       helper_size="0"
       simplify_individual_paths="false"
       simplify_just_coalesce="false"
       simplifyindividualpaths="false"
       simplifyJustCoalesce="false" />
  </defs>
  <sodipodi:namedview
     pagecolor="#ffffff"
     bordercolor="#666666"
     borderopacity="1"
     objecttolerance="10"
     gridtolerance="10"
     guidetolerance="10"
     inkscape:pageopacity="0"
     inkscape:pageshadow="2"
     inkscape:window-width="1920"
     inkscape:window-height="1017"
     id="namedview817"
     showgrid="false"
     inkscape:zoom="3.7216689"
     inkscape:cx="-53.863178"
     inkscape:cy="88.351491"
     inkscape:window-x="-8"
     inkscape:window-y="-8"
     inkscape:window-maximized="1"
     inkscape:current-layer="svg815" />
  <path
     style="fill:#f9f9f9;fill-opacity:1;stroke:none;stroke-width:4.81609964px;stroke-linecap:butt;stroke-linejoin:miter;stroke-opacity:1"
     d="m -137.50043,18.647037 8.73497,-5.418916 8.08794,-1.536707 10.7389,-1.437692 8.02511,-1.3122087 5.346508,-0.09353 9.697058,-0.06824 11.397944,0.996071 3.64562,0.8641567 8.33057,-3.4778157 9.22025,-2.18374 5.4998,-0.566157 5.82331,-0.485275 6.87475,-0.161773 1.21319,0.485275 -0.92907,1.01181 -1.37805,1.870159 0.63495,1.622876 0.7825,0.509674 5.25715,-3.477812 3.1543,-1.698465 1.05143,-5.33804 -0.64703,-11.3231123 0.72791,-0.242635 0.97055,5.8233103 0.3235,3.477816 1.13231,-7.0365053 0.64704,-6.874746 0.80879,-0.08086 -1.94826,16.2216883 -0.23546,3.998152 6.47035,-11.484866 5.98507,-11.7275113 1.37495,1.536707 -4.85276,12.2127863 -3.91575,5.697036 -2.57528,4.797404 2.36618,0.990431 -0.3235,1.860223 -2.26462,0.970555 -2.02198,0.97055 -1.65959,1.7684757 -3.19318,2.356374 -2.83737,2.281381 -2.04582,0.639491 -4.74145,1.123096 -1.15701,0.40147 0.99525,2.429298 1.28693,0.372622 -2.66188,0.759691 -1.69847,1.21319 -0.64703,2.911655 2.99254,-1.455825 3.63957,0.323498 2.71474,1.120764 -0.0457,1.062976 -3.47781,0.647038 2.18374,0.566152 3.55869,3.558693 1.69847,3.316053 1.37495,2.66902 0.3235,2.992536 -1.29407,1.294072 -1.61759,-3.154295 -2.24942,-0.969327 -0.79505,1.850302 0.052,3.48651 0.49645,2.380275 0.4741,1.421058 -0.80879,0.242635 -2.26462,-3.154295 -2.44519,-3.986565 -1.76054,-2.888181 -3.39693,-4.205727 -1.45583,-0.727915 -1.05143,0.404408 -0.48528,0.647033 -7.27914,2.588139 -3.63957,0.48528 -1.56741,1.596816 -2.63833,6.571997 -2.26462,5.176281 -2.3455,4.043968 -0.80879,-0.08086 4.44836,-12.778942 1.10552,-3.493123 -2.64222,0.500586 c 0,0 -2.42639,-1.860224 -2.42639,-2.345504 0,-0.485275 -1.13231,-3.558693 -1.13231,-3.558693 l -1.38323,1.114234 -0.48219,1.987715 -0.90284,1.266952 -2.81241,1.697055 -4.20573,-0.485276 -5.17628,3.720452 -12.859817,8.815851 v -1.132318 l 5.418916,-5.014519 5.985073,-5.014523 -2.830778,0.485276 -3.316053,-1.698466 -2.830778,-2.588138 -4.448366,-3.477816 h -5.661647 l -5.01452,-3.154295 -4.98137,-4.087068 -6.34174,-1.898005 -8.97761,-0.323498 -8.90976,0.696765 z"
     id="path843"
     inkscape:connector-curvature="0"
     inkscape:export-xdpi="73"
     inkscape:export-ydpi="73" />
  <path
     style="fill:#f2f2f2;stroke:none;stroke-width:0.48217133;stroke-opacity:1"
     d="m -67.8778,53.354948 c 0,-0.08611 1.17172,-3.000801 2.60383,-6.477057 1.43211,-3.476255 2.48762,-6.436697 2.34555,-6.578768 -0.14208,-0.142075 0.0966,-0.799872 0.53027,-1.461806 1.03219,-1.575318 1.02636,-1.587493 -0.64256,-1.342546 -1.78451,0.2619 -4.35493,-2.056412 -4.35493,-3.927804 0,-1.522316 -0.76973,-2.067234 -1.10564,-0.782712 -0.13803,0.527767 -0.0542,0.837987 0.18629,0.689371 1.15621,-0.714569 0.23763,0.826395 -1.29456,2.171657 -1.57919,1.386555 -1.99337,1.512366 -4.70117,1.428084 -2.88596,-0.08982 -3.08458,-0.01397 -7.06786,2.707944 -2.254155,1.540213 -4.966371,3.486018 -6.027146,4.324029 -1.060779,0.838006 -2.750657,1.992941 -3.755286,2.566524 l -1.826607,1.042873 0.862265,-1.155065 c 0.474241,-0.635291 1.052111,-1.121067 1.284155,-1.079519 0.23204,0.04142 0.486995,-0.20112 0.566552,-0.539215 0.07956,-0.338138 0.0419,-0.415389 -0.08337,-0.171742 -0.125411,0.243646 -0.660831,0.329855 -1.189798,0.191536 -0.528967,-0.138318 -0.898275,-0.06107 -0.820683,0.171742 0.07759,0.232762 -0.0759,0.510189 -0.341076,0.616476 -0.771115,0.309049 -1.655616,1.66428 -1.67227,2.56228 -0.02023,1.099824 -1.85991,2.102078 -2.564645,1.397348 -0.948709,-0.948709 0.568579,-2.599976 6.211723,-6.760239 3.024361,-2.229632 5.498844,-4.140988 5.498844,-4.247453 0,-0.106484 -0.22496,-0.05457 -0.499862,0.115346 -0.274952,0.169912 -1.364753,0.162832 -2.421839,-0.01589 -1.395436,-0.235748 -1.885936,-0.536552 -1.790447,-1.097975 0.08602,-0.50556 -0.918065,-1.388168 -2.90026,-2.54946 -1.667541,-0.976772 -3.40336,-2.109013 -3.857427,-2.515959 -0.582868,-0.522369 -1.463497,-0.672097 -2.995363,-0.509284 -2.542,0.270184 -6.21548,-1.332253 -6.96448,-3.038015 -0.25588,-0.582757 -1.21461,-1.26412 -2.18979,-1.556298 -0.95404,-0.285836 -2.3629,-1.17548 -3.13079,-1.976975 -0.87553,-0.913879 -1.87944,-1.457294 -2.69219,-1.457294 -2.53546,0 -4.43543,-0.618099 -4.67119,-1.519639 -0.19351,-0.73996 -0.77589,-0.908408 -3.43148,-0.992501 -8.46973,-0.268209 -14.45965,0.517046 -20.67725,2.710736 -1.91579,0.675935 -1.92856,0.672492 -1.92856,-0.520129 0,-0.793129 0.38553,-1.376234 1.13597,-1.718163 0.8755,-0.398917 1.07109,-0.77609 0.85299,-1.645035 -0.246,-0.980245 0.012,-1.254006 1.97785,-2.096563 1.24345,-0.533008 2.99262,-0.969106 3.88704,-0.969106 1.58389,0 2.89113,-0.702832 6.62458,-3.561703 2.52289,-1.931887 6.68041,-2.826188 19.39411,-4.1717727 2.12155,-0.224526 5.37621,-0.627234 7.23257,-0.89487 7.266308,-1.047602 7.260062,-1.047077 6.509309,-0.547133 -0.569388,0.379172 -0.582474,0.4832 -0.0615,0.489013 0.461479,0.0053 0.51776,0.189802 0.185998,0.610098 -0.261659,0.331493 -0.603009,2.1988387 -0.758536,4.1496577 -0.201698,2.529974 -0.658871,4.258063 -1.594491,6.027141 -0.72145,1.364112 -1.6301,3.13113 -2.01923,3.926711 -0.38914,0.795586 -1.37374,2.154559 -2.18801,3.01995 l -1.48051,1.573439 0.99232,0.992328 c 1.24961,1.249605 4.25845,1.960894 5.80598,1.372526 0.680164,-0.258576 1.471352,-1.196223 1.901989,-2.254002 0.405564,-0.996167 1.621374,-3.655516 2.701822,-5.909667 2.992604,-6.243476 4.520372,-9.749741 4.88,-11.199672 0.37527,-1.5129387 -0.06362,-1.7043547 -4.508462,-1.9663987 l -2.651942,-0.15633 3.134116,-0.174343 3.13411,-0.174343 -3.13411,-0.337464 c -1.879599,-0.202421 -0.518983,-0.253231 3.399164,-0.126952 3.593297,0.115779 7.390393,0.409272 8.437993,0.652215 1.0476,0.242924 3.12913,0.446838 4.62563,0.453195 1.96597,0.0082 2.7979,0.212197 2.99843,0.734764 0.15262,0.3978087 0.55557,0.7199337 0.89539,0.7158687 0.43504,-0.0053 0.40383,-0.151948 -0.10542,-0.496015 -0.57179,-0.3862987 -0.47082,-0.4661497 0.48217,-0.3813377 0.66299,0.059 2.91545,-0.713891 5.00548,-1.717566 6.48774,-3.115549 11.76929,-4.212286 21.51394,-4.467457 8.99452,-0.235508 12.77755,0.139426 12.77755,1.266393 0,0.373585 -0.70518,0.861995 -1.56706,1.085327 -1.25419,0.324991 -1.56706,0.652539 -1.56706,1.640571 v 1.234506 l 1.35323,-1.13867 c 0.74428,-0.626272 2.69869,-1.673085 4.34311,-2.326249 1.64444,-0.653169 3.0866,-1.516161 3.2048,-1.917761 1.0887,-3.69870203 0.95394,-13.7204903 -0.24253,-18.0381383 -0.51913,-1.873318 -0.94386,-3.573127 -0.94386,-3.777353 0,-0.733194 1.4223,-0.353165 1.88016,0.502357 0.84468,1.578289 1.97598,7.325355 2.04068,10.3667273 0.0547,2.568932 0.11284,2.749078 0.41871,1.296051 0.19539,-0.928178 0.3838,-1.403575 0.41871,-1.056431 0.0347,0.347145 0.28045,0.497075 0.54564,0.333178 0.61918,-0.382687 0.60991,0.819546 -0.0332,4.298186 -0.28342,1.533234 -0.4098,2.89324297 -0.28077,3.02224197 0.47313,0.473134 5.67787,-9.06244497 7.7195,-14.14293927 2.21324,-5.507557 5.17668,-13.991574 6.05901,-17.346324 0.4263695,-1.621094 0.7336495,-1.988958 1.6613895,-1.988958 1.05925,0 1.11097,0.121366 0.74494,1.747869 -0.21633,0.961332 -1.04863,3.580539 -1.84957,5.820458 -0.8009395,2.239925 -1.3837595,4.145078 -1.2951595,4.233675 0.26484,0.264837 2.3055195,-4.688878 3.4217195,-8.30626 0.83191,-2.696072 1.25249,-3.406201 2.09021,-3.529281 0.76206,-0.111974 1.04877,0.09565 1.04877,0.75935 0,3.882282 -10.9128495,26.9441023 -15.9459595,33.6981523 l -1.84819,2.480118 2.16509,0.324654 c 5.76817,0.86499 12.7807395,4.783254 16.1189895,9.0064527 1.47684,1.868343 1.85487,2.75007 1.83379,4.277216 -0.0145,1.058035 -0.0888,1.92371 -0.16476,1.92371 -0.076,0 -0.78122,-1.139345 -1.56711,-2.531867 -0.7859,-1.392532 -2.45083,-3.473858 -3.69986,-4.625175 -2.34332,-2.1599867 -7.9083895,-4.9926387 -10.8749495,-5.5354037 -1.32512,-0.242442 -0.88415,0.116068 2.05297,1.66902 2.05732,1.087783 5.21051,3.3387217 7.0070895,5.0020827 4.25545,3.939897 7.01226,8.914369 4.94026,8.914369 -0.22433,0 -0.95696,-0.936915 -1.62804,-2.082039 C -8.7788805,15.076761 -17.16355,8.9635803 -21.84227,8.4226553 c -1.3776,-0.159268 -1.57845,-0.115827 -0.71396,0.154356 0.6616,0.206803 1.2742,0.746168 1.36133,1.198631 0.1309,0.6796427 -0.22906,0.8226617 -2.07064,0.8226617 -2.66291,0 -4.46229,0.848597 -5.87767,2.77195 -1.60101,2.175595 -4.17527,3.18453 -9.2016,3.606411 -0.33149,0.02793 -0.61796,0.502622 -0.6366,1.055115 -0.0332,0.989906 -0.0405,0.990489 -0.4781,0.03997 l -0.44419,-0.964342 0.12046,0.964342 c 0.0923,0.738732 0.54254,0.999355 1.92459,1.113998 2.65966,0.220625 2.45257,1.533094 -0.24509,1.553278 -1.85887,0.01397 -3.73683,0.820447 -3.73683,1.604879 0,0.169671 0.3797,0.304715 0.8438,0.300187 0.46408,-0.0043 2.52538,0.367421 4.58063,0.826607 3.56687,0.796944 3.73683,0.896006 3.73683,2.178081 0,1.500335 -0.12613,1.567636 -1.52998,0.816319 -1.09024,-0.583475 -2.38684,0.135188 -1.37365,0.761373 0.3979,0.24591 0.33005,0.592601 -0.23907,1.221478 -0.74099,0.81879 -0.73226,0.9115 0.12931,1.372598 0.71252,0.381339 0.92399,0.334912 0.92399,-0.20271 0,-0.383457 -0.20738,-0.697212 -0.46085,-0.697212 -0.25834,0 -0.22805,-0.280489 0.0689,-0.638292 0.38682,-0.466102 0.37676,-0.791285 -0.0376,-1.205431 -0.36082,-0.360822 -0.38206,-0.56712 -0.0585,-0.56712 0.90117,0 5.33472,5.068468 6.57566,7.517334 0.66187,1.306151 1.25791,3.132522 1.32453,4.058595 0.32624,4.535394 -0.46673,5.690029 -1.76837,2.574837 -0.40465,-0.968489 -1.20231,-2.138695 -1.77256,-2.600458 -1.02624,-0.830994 -1.04312,-0.814947 -1.65409,1.572437 -0.48217,1.884044 -0.49323,2.826034 -0.0506,4.303532 0.41235,1.376369 0.42218,2.036069 0.0361,2.422247 -0.96313,0.963134 -1.89796,0.04286 -3.73646,-3.677862 l -1.81599,-3.675286 -1.14422,1.074929 c -1.51661,1.424781 -2.60807,0.583822 -1.42833,-1.100503 0.42849,-0.611741 0.77881,-1.335201 0.77852,-1.607691 -3e-4,-0.272495 -1.21587,-1.797292 -2.70126,-3.388454 -1.48539,-1.591167 -2.5665,-2.6368 -2.40245,-2.323633 0.16403,0.313191 0.07,0.710466 -0.20897,0.882873 -0.80729,0.498933 -10.25539,3.126313 -11.3207,3.14812 -1.06402,0.02167 -1.73112,1.26466 -5.68302,10.588008 -2.52318,5.952728 -3.36538,7.232568 -4.75941,7.232568 -0.48926,0 -0.88959,-0.07046 -0.88959,-0.156571 z m 4.87966,-7.075987 c 0.88846,-2.254151 1.54497,-4.41266 1.4589,-4.79669 -0.0861,-0.384036 0.19476,-0.955047 0.62402,-1.268942 0.70742,-0.517278 0.7091,-0.598116 0.0178,-0.863305 -0.41934,-0.160906 -0.64136,-0.09661 -0.49334,0.142894 0.14805,0.239505 0.0308,0.514904 -0.26045,0.612001 -0.29128,0.09709 -0.56386,0.745734 -0.60572,1.441425 -0.0419,0.69569 -0.23888,1.164422 -0.43774,1.041621 -0.1989,-0.12281 -0.36164,0.09478 -0.36164,0.483498 0,0.388707 -0.62289,2.09509 -1.38422,3.791932 -0.76132,1.696847 -1.54341,3.615619 -1.73798,4.263943 -0.3536,1.17824 -0.35331,1.178336 0.60551,0.214461 0.5276,-0.530387 1.6862,-2.808648 2.57465,-5.062799 z m 29.92415,-1.796631 -0.26536,-1.337484 -0.31729,1.205431 c -0.34676,1.317425 -0.13957,2.079891 0.46379,1.70697 0.21129,-0.130612 0.26479,-0.839306 0.11882,-1.574917 z m -1.30596,-0.153152 c -0.17107,-0.27683 -0.0332,-0.873501 0.30679,-1.325974 0.57686,-0.768153 0.55985,-0.769819 -0.25665,-0.02504 -0.74795,0.682158 -0.73542,1.854411 0.0197,1.854411 0.13259,0 0.10109,-0.226453 -0.07,-0.503288 z m -52.497815,-1.545959 c 0.917789,-1.084007 0.917722,-1.0842 -0.08496,-0.240034 -0.551906,0.464657 -1.183384,0.681647 -1.403277,0.482173 -0.219903,-0.199482 -0.243743,-0.09146 -0.05298,0.240035 0.453821,0.788578 0.469425,0.783695 1.541171,-0.482174 z M -34.6916,42.281261 c 0.39434,-0.475156 0.26565,-0.634718 -0.54368,-0.674114 -0.58316,-0.02841 -0.78773,0.05331 -0.45459,0.181519 0.33313,0.128205 0.48307,0.431571 0.33318,0.674114 -0.40932,0.66232 0.0743,0.53032 0.66509,-0.181519 z m -51.026545,-1.117002 c 0,-0.399062 -0.93625,-0.624726 -1.150898,-0.277408 -0.139234,0.225297 0.06271,0.409658 0.44886,0.409658 0.386107,0 0.702048,-0.05953 0.702048,-0.13225 z m 50.000195,-2.005106 c -0.093,-0.694299 -0.45391,-1.357312 -0.80209,-1.47337 -0.37575,-0.125267 -0.49621,0.0106 -0.29638,0.333707 0.18518,0.29961 0.20998,0.544725 0.0552,0.544725 -0.15479,0 -0.48772,-0.542442 -0.73978,-1.205426 -0.25208,-0.66299 -0.69345,-1.205432 -0.98087,-1.205432 -0.28742,0 -0.39771,0.201987 -0.24514,0.448861 0.15258,0.246873 0.0569,0.585142 -0.21263,0.751711 -0.26951,0.166589 -0.48344,0.561278 -0.47535,0.877123 0.008,0.315839 0.24456,0.178966 0.52552,-0.304185 0.45411,-0.78082 0.61871,-0.66048 1.48123,1.082828 1.04624,2.114648 1.96438,2.195838 1.69034,0.149443 z m 2.09557,-0.543608 c -0.3301,-0.796857 -0.51057,-1.717522 -0.40109,-2.045913 0.10947,-0.32841 -0.10031,-0.93611 -0.46615,-1.350478 -0.36583,-0.414377 -1.32894,-1.711463 -2.14021,-2.88245 l -1.47504,-2.129058 -0.61909,1.156794 c -0.40268,0.752414 -0.46567,1.443442 -0.18022,1.976811 0.58433,1.091839 0.55497,1.847769 -0.0718,1.847769 -0.28083,0 -0.35582,-0.250485 -0.16659,-0.556669 0.21489,-0.347674 0.1321,-0.425695 -0.22048,-0.207767 -0.73993,0.457289 -0.15754,1.384658 0.67014,1.067055 0.35157,-0.134898 0.87918,0.04383 1.17245,0.397184 0.86823,1.046149 2.42532,1.261067 2.46286,0.339921 0.0178,-0.439277 0.3233,0.285113 0.67871,1.609781 0.35538,1.324635 0.52589,2.626499 0.37888,2.893026 -0.14698,0.266523 0.013,0.225442 0.35524,-0.09131 0.50166,-0.464079 0.50601,-0.857164 0.0222,-2.024727 z m -50.428739,1.361901 c 0.397231,0.642743 2.029619,-0.331973 2.029619,-1.211894 0,-0.445104 -0.2421,-0.501852 -0.820581,-0.192259 -0.451317,0.241528 -0.92277,0.336983 -1.047661,0.212101 -0.124881,-0.124881 -0.64162,0.258721 -1.148283,0.852455 -0.644876,0.755699 -0.680968,0.8942 -0.120354,0.461719 0.528022,-0.407345 0.905253,-0.448908 1.10724,-0.122088 z M -29.02617,34.77955 c -0.67317,-1.32842 -1.49929,-2.580808 -1.83581,-2.783079 -0.37282,-0.224045 -0.32928,-0.01397 0.11139,0.538329 0.666,0.834346 0.6469,0.877594 -0.24109,0.546165 -0.77373,-0.288773 -0.84521,-0.239938 -0.36164,0.24721 0.33149,0.333949 0.60271,0.790269 0.60271,1.014049 0,0.535069 -1.59118,0.258432 -2.02788,-0.352586 -0.18715,-0.261852 -0.30442,5.7e-5 -0.2606,0.582025 0.0438,0.581968 0.16683,0.970974 0.27336,0.864456 0.10654,-0.106532 0.73898,0.4544 1.40547,1.246479 0.66649,0.792085 1.33444,1.317502 1.48433,1.167601 0.14993,-0.149877 -0.20256,-0.605316 -0.78325,-1.01204 -1.40367,-0.983174 -1.33802,-1.569399 0.144,-1.286087 0.67073,0.128204 1.06312,0.450546 0.88984,0.730896 -0.17988,0.291037 -0.0763,0.357162 0.24673,0.157486 0.35403,-0.218795 0.58341,0.06126 0.63011,0.7693 0.16505,2.502133 0.53719,3.248479 0.75466,1.513551 0.12411,-0.990238 -0.23941,-2.379018 -1.03234,-3.943793 z m -29.72845,2.125456 c -0.0207,-0.280827 -0.1505,-0.230258 -0.28795,0.112263 -0.19192,0.478287 -0.40692,0.492552 -0.92628,0.0615 -0.44737,-0.371273 -0.67637,-0.387696 -0.67637,-0.0486 0,0.282031 0.22053,0.649042 0.49004,0.815612 0.26951,0.166589 0.36193,0.559091 0.20531,0.872258 -0.15657,0.313191 0.0568,0.148239 0.47429,-0.366553 0.41746,-0.514779 0.74188,-1.165708 0.72094,-1.446516 z m 25.92729,-0.139763 c -0.12223,-0.469137 -0.23031,-0.202036 -0.24013,0.593541 -0.01,0.795581 0.0902,1.179419 0.22226,0.852974 0.13206,-0.326435 0.1401,-0.977374 0.0178,-1.446515 z m -52.408646,-0.526265 c 0,-0.57615 0.13538,-0.625265 0.558171,-0.202469 0.422806,0.422757 0.399929,0.767802 -0.09411,1.422406 -0.617569,0.818207 -0.604561,0.820582 0.244224,0.04479 1.108213,-1.013139 0.442455,-2.048861 -1.415909,-2.202658 -1.113304,-0.09213 -1.193521,0.0029 -0.731282,0.866633 0.285547,0.533571 0.359041,1.236862 0.163266,1.562873 -0.230643,0.384036 -0.06868,0.359763 0.45989,-0.06902 0.448716,-0.363952 0.815813,-1.004051 0.815813,-1.422406 z m 6.278356,0.167696 c -0.26618,-0.320704 -0.32306,-0.760654 -0.12647,-0.977668 0.1966,-0.217013 0.0757,-0.231991 -0.26869,-0.03323 -0.4374,0.252412 -0.47718,0.54079 -0.13201,0.956685 0.34199,0.412113 0.31213,0.799891 -0.0971,1.259795 -0.49989,0.561764 -0.45994,0.56501 0.25853,0.02119 0.59394,-0.449727 0.70406,-0.818968 0.36583,-1.22654 z m -8.702665,-0.510583 c -0.322727,-0.3889 -1.252634,-0.707047 -2.066425,-0.707047 -1.395022,0 -1.426191,0.03901 -0.545043,0.68339 0.681016,0.497975 1.105107,0.541869 1.563075,0.161773 0.480262,-0.398581 0.699514,-0.250004 0.929676,0.630153 0.165626,0.633457 0.392175,0.878818 0.503345,0.545255 0.111204,-0.333563 -0.06189,-0.924663 -0.384614,-1.313539 z m 11.169315,-0.122522 c -0.34787,-0.115972 -0.86172,0.0183 -1.14191,0.298598 -0.35779,0.357788 -0.16958,0.420542 0.63247,0.210849 0.65199,-0.17049 0.87056,-0.389044 0.50944,-0.509447 z m 2.21435,0.570694 c -0.16023,-0.160232 -0.5761,-0.177329 -0.92417,-0.03805 -0.38466,0.153923 -0.27037,0.268161 0.29133,0.291326 0.50829,0.02071 0.79307,-0.09305 0.63285,-0.25323 z m 2.41086,0 c -0.16023,-0.160232 -0.5761,-0.177329 -0.92417,-0.03805 -0.38466,0.153923 -0.27037,0.268161 0.29133,0.291326 0.50828,0.02071 0.79307,-0.09305 0.63285,-0.25323 z m 10.60777,0 c -0.16024,-0.160232 -0.5761,-0.177329 -0.92416,-0.03805 -0.38467,0.153923 -0.27038,0.268161 0.29132,0.291326 0.50829,0.02071 0.79307,-0.09305 0.63285,-0.25323 z m -21.39276,-0.914115 c -0.152672,-0.39781 -0.634037,-0.716357 -1.069754,-0.707924 -0.672429,0.013 -0.650693,0.122377 0.143761,0.723258 1.169843,0.884828 1.270793,0.883162 0.926013,-0.01541 z m 12.42359,-0.120547 c 0.59976,-0.764754 0.58271,-0.781808 -0.18204,-0.182049 -0.46408,0.363953 -0.8438,0.743678 -0.8438,0.8438 0,0.396847 0.39593,0.141401 1.02584,-0.661751 z m 9.58192,-0.218796 c 0.52173,-0.324798 0.38736,-0.375704 -0.48216,-0.182578 -0.66299,0.147228 -1.85637,0.27394 -2.65195,0.281645 -1.09598,0.0106 -1.27221,0.124159 -0.72726,0.468703 0.75278,0.475927 2.62783,0.200254 3.86137,-0.567736 z M -79.62632,34.74212 c 1.07732,-0.847417 1.10765,-0.970204 0.34508,-1.396958 -1.06195,-0.594293 -3.1237,0.639144 -2.73995,1.639174 0.35615,0.928091 0.98834,0.864152 2.39486,-0.242202 z m 8.43482,0.08529 c 0.61212,-0.780522 0.58943,-0.790751 -0.30259,-0.13644 -0.53039,0.389044 -1.05475,0.76876 -1.16525,0.843799 -0.11048,0.07503 0.0255,0.136441 0.3026,0.136441 0.27692,0 0.80128,-0.379702 1.16524,-0.8438 z m 13.66781,-1.019646 c 0.23113,-1.200157 -0.11014,-1.270809 -1.40556,-0.290988 -0.81615,0.617303 -0.83158,0.707923 -0.12055,0.707923 0.44848,0 0.81542,0.253134 0.81542,0.562535 0,0.855358 0.48645,0.184938 0.71069,-0.979465 z m -14.79179,-0.485445 c 0.0806,-0.950038 -0.0217,-1.044973 -0.60455,-0.561206 -0.38587,0.320223 -0.9616,0.421553 -1.27938,0.225153 -0.343,-0.212005 -0.45175,-0.153152 -0.26763,0.144772 0.17058,0.276011 -0.10735,0.611028 -0.61762,0.744473 -0.53405,0.139666 -1.03688,-0.0419 -1.18487,-0.427333 -0.1414,-0.36848 -0.62257,-0.669972 -1.06926,-0.669972 -0.67609,0 -0.63537,0.153344 0.24297,0.915136 0.68117,0.590771 1.69813,0.889851 2.86922,0.8438 1.53707,-0.06044 1.82888,-0.245959 1.9111,-1.214799 z m 10.5843,0.420205 c 0.12888,-0.477854 0.0599,-0.537703 -0.20334,-0.176318 -0.21908,0.300814 -0.83229,0.666341 -1.36267,0.812284 -0.76039,0.209259 -0.71738,0.246536 0.20333,0.176317 0.64222,-0.04898 1.25543,-0.414474 1.36268,-0.812288 z m 9.52394,0.482173 c 1.22868,-0.527984 -0.039,-0.527984 -1.6876,0 -0.96903,0.31035 -1.01631,0.388804 -0.24109,0.400218 0.53039,0.0077 1.3983,-0.17232 1.92868,-0.400218 z m -17.11708,-0.182049 c 0,-0.100126 -0.3797,-0.479828 -0.8438,-0.843799 -0.76475,-0.599759 -0.78181,-0.582705 -0.18205,0.182048 0.62989,0.803176 1.02585,1.058598 1.02585,0.661751 z m 36.882,-0.903885 c 0.2199,0.199483 0.25891,0.116068 0.0867,-0.18542 -0.17218,-0.30144 0.0125,-0.818433 0.41081,-1.148861 0.56506,-0.468944 0.59904,-0.75122 0.15489,-1.28639 -0.9562,-1.152146 -2.1752,-1.639256 -2.1752,-0.86921 0,0.371803 0.1808,0.564254 0.40181,0.42767 0.22101,-0.136585 0.6423,-0.09969 0.93624,0.08197 0.34011,0.210223 0.0332,0.759152 -0.8438,1.509847 -0.75803,0.648753 -1.07886,1.025165 -0.71297,0.83647 0.44491,-0.229439 0.58466,-0.121221 0.42189,0.326772 -0.13384,0.368384 -0.50359,0.610215 -0.82165,0.537342 -0.31805,-0.07287 -0.43215,0.10398 -0.25347,0.393042 0.22096,0.357547 0.59171,0.283957 1.15986,-0.230209 0.45926,-0.41563 1.01497,-0.592516 1.23486,-0.393042 z m -1.16114,-0.97919 c 0.11048,-0.07503 0.63486,-0.454736 1.16525,-0.8438 0.89202,-0.654311 0.91471,-0.644081 0.30259,0.13644 -0.36395,0.464079 -0.88833,0.8438 -1.16524,0.8438 -0.27693,0 -0.41308,-0.06141 -0.3026,-0.13644 z m -49.415415,0.555258 c 1.093645,-0.522379 1.463215,-1.088574 1.692385,-2.592801 0.16129,-1.058463 0.33925,-1.49052 0.3955,-0.960132 l 0.10229,0.964342 0.38004,-0.964342 c 0.33193,-0.842221 0.42416,-0.765389 0.72856,0.606727 0.39386,1.775445 1.4634,2.527388 3.59485,2.527388 1.55285,0 3.00256,-1.20598 4.20224,-3.495742 0.81357,-1.552802 2.3666,-1.852359 1.98218,-0.38235 -0.36901,1.411021 2.34194,2.134201 6.8432,1.825518 5.56461,-0.381627 11.6957,-2.930115 17.29036,-7.187075 4.46743,-3.399256 5.72927,-4.806154 5.15051,-5.742606 -0.169,-0.273458 -0.97119,-0.431715 -1.78265,-0.351672 -1.71958,0.169575 -2.46312,-0.979936 -0.8985,-1.389098 0.75728,-0.198038 1.01702,-0.649244 1.02252,-1.776283 0.004,-0.830956 0.20671,-1.825899 0.45031,-2.210995 0.31208,-0.493346 0.1675,-0.893102 -0.48955,-1.353314 -1.11914,-0.7838677 -1.33449,-3.9736527 -0.26826,-3.9736527 0.3653,0 0.93433,-0.325472 1.26447,-0.723258 0.52492,-0.632498 0.12391,-0.723089 -3.19563,-0.721899 -11.44201,0.0041 -25.33999,3.989806 -26.79742,7.6850687 -0.62738,1.590681 -0.74373,8.158338 -0.20767,11.720966 0.45627,3.032245 -0.2516,3.890802 -1.19264,1.446515 -0.75926,-1.972135 -1.07918,-9.691066 -0.50406,-12.161749 0.27611,-1.186186 0.40552,-2.253241 0.28752,-2.371236 -0.11799,-0.117994 -1.38658,-0.311746 -2.81908,-0.430511 -3.05936,-0.253712 -3.09932,-0.207189 -4.37423,5.089669 -0.68711,2.854747 -0.74421,3.902557 -0.30722,5.637943 0.29518,1.172339 0.51509,2.632133 0.48866,3.243985 -0.0472,1.096563 -0.0536,1.095234 -0.43412,-0.09295 -0.38124,-1.190415 -0.38717,-1.187414 -0.47511,0.241094 -0.0718,1.166546 -0.21716,0.93324 -0.75089,-1.205427 -0.91404,-3.662619 -0.85356,-5.988887 0.2501,-9.618497 0.51998,-1.710053 0.86097,-3.193623 0.75777,-3.296823 -0.35576,-0.355765 -3.883987,-1.0446687 -5.409053,-1.0561457 -1.337354,-0.01011 -1.571132,0.184697 -1.867274,1.5555517 -0.491271,2.274157 -3.079564,8.673911 -3.859184,9.542124 -0.366698,0.408357 -1.355795,2.469652 -2.197986,4.580626 -0.842196,2.110973 -1.765592,4.135011 -2.051996,4.497866 -0.662185,0.83894 1.519947,2.685968 4.008209,3.392668 2.219851,0.630466 7.205015,0.35355 8.990815,-0.499468 z m 27.074815,-11.54738 c -1.34862,-0.785496 -0.98005,-1.383651 0.81107,-1.316317 0.94512,0.03564 2.20804,-0.332648 2.94465,-0.858479 2.59615,-1.853254 4.82251,-3.074796 5.61816,-3.082535 1.60347,-0.01541 1.36119,0.940642 -0.42772,1.688086 -1.00155,0.418471 -2.25792,1.163666 -2.79192,1.655978 -0.88434,0.815288 -4.27773,2.454746 -5.00772,2.419396 -0.16649,-0.0082 -0.68245,-0.235796 -1.14654,-0.506129 z m 5.45081,-2.185319 c 0.67749,-0.633192 1.47835,-1.15126 1.77968,-1.15126 0.30135,0 0.68044,-0.214509 0.84246,-0.476649 0.47525,-0.768968 -1.32779,0.03419 -2.55126,1.13658 -0.60949,0.549127 -1.69437,1.274061 -2.41085,1.610976 -1.24914,0.587376 -1.25314,0.600615 -0.0973,0.3221 0.66298,-0.15975 1.75975,-0.808541 2.43724,-1.441733 z m 0.42656,13.59176 c 2.21082,-0.642752 4.36945,-1.533947 4.79695,-1.980438 0.72149,-0.753541 0.69077,-0.788092 -0.42815,-0.481513 -2.14164,0.586798 -9.64343,3.27488 -9.64343,3.455484 0,0.391067 1.45467,0.117031 5.27463,-0.993533 z m -3.76071,-0.46798 c 1.21662,-0.21894 1.83532,-0.622915 2.01677,-1.316818 0.15995,-0.611679 0.48193,-0.864904 0.82787,-0.651103 0.42015,0.259684 0.39742,0.456759 -0.0881,0.764392 -0.35981,0.227994 -0.43721,0.414522 -0.17203,0.414522 0.26517,0 0.77159,-0.183446 1.12531,-0.407683 0.51408,-0.325857 0.48375,-0.468847 -0.15108,-0.71247 -0.43682,-0.167648 -0.65547,-0.529328 -0.48585,-0.803768 0.16962,-0.274422 -0.62737,0.139089 -1.77107,0.918921 -1.1437,0.779847 -2.23013,1.324784 -2.41428,1.21097 -0.18417,-0.113805 -0.47328,0.01734 -0.64255,0.290989 -0.16924,0.273843 -0.5097,0.373055 -0.75657,0.220481 -0.24688,-0.152574 -0.44886,0.08741 -0.44886,0.533344 0,0.582271 0.16986,0.675949 0.60271,0.332407 0.33149,-0.263103 1.39247,-0.620463 2.35772,-0.794175 z m 6.4419,0.672265 c 0.60785,-0.261177 0.69697,-0.414378 0.2411,-0.414378 -0.39781,0 -1.15722,0.18648 -1.6876,0.414378 -0.60785,0.261177 -0.69698,0.414377 -0.2411,0.414377 0.39781,0 1.15721,-0.186479 1.6876,-0.414377 z m -21.45662,-0.723253 c 0,-0.39781 -0.20416,-0.723258 -0.45373,-0.723258 -0.60801,0 -1.04346,0.752954 -0.65824,1.138174 0.54301,0.543011 1.11196,0.330722 1.11196,-0.414907 z m 6.75039,0.43027 c 0,-0.399062 -0.93624,-0.62473 -1.1509,-0.277407 -0.13923,0.225345 0.0627,0.409657 0.44886,0.409657 0.38611,0 0.70205,-0.05953 0.70204,-0.13225 z m 1.6876,-0.189176 c 0.16389,-0.265175 -0.0405,-0.482174 -0.45372,-0.482174 -0.41346,0 -0.75172,0.216966 -0.75172,0.482174 0,0.265174 0.20416,0.482168 0.45373,0.482168 0.24952,0 0.58781,-0.216965 0.75171,-0.482168 z m -10.5185,-0.664502 c -0.14024,-0.365493 -0.0361,-0.883426 0.23151,-1.151009 0.32721,-0.327206 0.31098,-0.594986 -0.0496,-0.817851 -0.30437,-0.188117 -0.47886,-0.05529 -0.40363,0.307219 0.0729,0.35119 -0.14107,0.583538 -0.4754,0.516291 -0.48767,-0.0981 -0.48857,0.06877 -0.004,0.8438 0.69429,1.111744 1.07545,1.275554 0.7017,0.301584 z m 31.14571,-0.179303 c 0.10552,-0.198905 -0.0954,-0.904073 -0.44659,-1.567058 -0.36516,-0.689444 -0.64465,-0.895838 -0.65294,-0.482173 -0.013,0.642896 -0.0664,0.642896 -0.4819,0 -0.33963,-0.525552 -0.46942,-0.550721 -0.47477,-0.09208 -0.004,0.375945 -0.25111,0.484745 -0.6101,0.269075 -0.48074,-0.288821 -0.48161,-0.212438 -0.004,0.377535 0.32918,0.406815 0.43769,0.917192 0.2411,1.134205 -0.19659,0.217014 -0.10124,0.247741 0.21195,0.06829 0.3132,-0.179448 0.70569,-0.105714 0.87226,0.163795 0.35562,0.575404 1.07183,0.643764 1.34522,0.128398 z m -1.5906,-0.854838 c -0.50955,-0.613971 -0.47973,-0.684527 0.18205,-0.43056 0.43532,0.167023 0.79146,0.49747 0.79146,0.734297 0,0.620048 -0.2791,0.532968 -0.97351,-0.303704 z m -19.63932,0.414955 c -0.33149,-0.133743 -0.87394,-0.133743 -1.20543,0 -0.33149,0.133743 -0.0602,0.243213 0.60272,0.243213 0.66298,0 0.9342,-0.109422 0.60271,-0.243213 z m 5.42443,-0.162833 c 0.16389,-0.265174 0.081,-0.482168 -0.18417,-0.482168 -0.26522,0 -0.61627,0.216965 -0.78017,0.482168 -0.16389,0.265175 -0.081,0.482174 0.18417,0.482174 0.26522,0 0.61627,-0.216965 0.78017,-0.482174 z m -1.95648,-0.437205 c 0.14862,-0.240468 -0.16404,-0.323642 -0.6948,-0.184842 -1.12586,0.294408 -1.26818,0.622052 -0.27023,0.622052 0.38216,0 0.81639,-0.196737 0.96501,-0.437205 z m 5.57276,-1.222215 c 0,-0.09844 -0.43398,-0.0655 -0.96434,0.0732 -0.53039,0.138704 -0.96434,0.451461 -0.96434,0.695084 0,0.244658 0.43157,0.211908 0.96434,-0.0732 0.53039,-0.283861 0.96434,-0.596642 0.96434,-0.695083 z m 8.04412,0.122521 c -0.15392,-0.384662 -0.26816,-0.270376 -0.29133,0.291326 -0.0207,0.508286 0.093,0.793072 0.25324,0.63285 0.16023,-0.160232 0.17732,-0.576097 0.038,-0.924161 z m -3.1587,-0.565039 -1.06873,-1.137621 1.63693,-1.437244 c 0.90031,-0.790491 2.10972,-1.7684 2.68756,-2.173135 0.57784,-0.404745 1.14197,-1.253087 1.25362,-1.885224 0.18363,-1.039801 0.0613,-0.988509 -1.28428,0.538272 -0.81799,0.928178 -1.31919,1.386983 -1.11378,1.019563 0.20541,-0.36742 -0.30842,-0.163892 -1.14185,0.452328 -1.41158,1.043625 -2.11808,1.850586 -1.03317,1.180075 0.66942,-0.413752 0.60591,0.406623 -0.085,1.097521 -0.39164,0.391645 -0.75136,0.414233 -1.1625,0.07301 -0.40845,-0.339005 -0.69577,-0.331636 -0.91522,0.0236 -0.17593,0.284632 -0.0323,0.457915 0.31868,0.385047 0.39044,-0.08101 0.61647,0.284824 0.58173,0.941476 -0.0313,0.59068 0.10875,0.971638 0.31112,0.846569 0.20237,-0.125074 0.49235,0.0968 0.64441,0.493091 0.15205,0.396269 0.53809,0.720489 0.85783,0.720489 0.31974,0 0.10042,-0.511927 -0.48738,-1.137616 z m -58.72222,-0.08862 c -0.15705,-0.409224 -0.38895,-0.640643 -0.51532,-0.514254 -0.12638,0.126375 -0.0868,0.461238 0.088,0.744054 0.47544,0.769285 0.75333,0.619837 0.42728,-0.229824 z m 54.4326,-0.393331 c 0.47858,-0.01927 0.65617,-0.214365 0.41481,-0.455748 -0.24138,-0.241383 -1.01265,-0.08077 -1.80126,0.375078 -0.75852,0.438458 -0.94519,0.643547 -0.41481,0.455748 0.53039,-0.187828 1.34095,-0.356584 1.80125,-0.375078 z m 5.38068,0.09107 c -0.22665,-0.366698 -0.096,-0.467161 0.37334,-0.287039 0.4216,0.161772 0.722,0.0063 0.722,-0.374163 0,-0.48566 -0.22819,-0.529116 -0.89749,-0.170924 -0.76551,0.409706 -0.82933,1.396279 -0.0903,1.396279 0.13259,0 0.0842,-0.253856 -0.10754,-0.564114 z m -3.08347,-0.100127 c 0,-0.100126 -0.3797,-0.479828 -0.8438,-0.843799 -0.76475,-0.599759 -0.78181,-0.582705 -0.18205,0.182048 0.62989,0.803176 1.02585,1.058598 1.02585,0.661751 z m 5.55036,-3.237574 c 0.78538,-0.899335 0.63167,-0.853423 -0.84919,0.253664 -0.99448,0.743461 -1.80815,1.442113 -1.80815,1.552561 0,0.42531 1.74348,-0.759754 2.65734,-1.806216 z m -65.86437,1.370411 c -0.11183,-0.06632 -0.96165,-0.771476 -1.88851,-1.567058 l -1.68519,-1.446515 1.41619,1.567058 c 0.77889,0.861884 1.62872,1.567057 1.8885,1.567057 0.25978,0 0.38086,-0.05423 0.26903,-0.120547 z m 66.90368,-0.595058 c 0,-0.541667 -0.15628,-0.585917 -0.6429,-0.182048 -0.35359,0.293445 -0.64289,0.615478 -0.64289,0.7156 0,0.100126 0.28931,0.182048 0.64289,0.182048 0.3536,0 0.6429,-0.322004 0.6429,-0.7156 z m -61.43598,-2.418515 c 2.64745,-4.752007 4.218313,-9.391919 4.218313,-12.45976 0,-1.3590507 -0.06324,-1.3978487 -1.808143,-1.1094317 -0.99448,0.164373 -2.46616,0.3012467 -3.27042,0.3041847 l -1.46227,0.0053 0.18749,3.318327 c 0.17642,3.12221 0.0873,3.475042 -1.50876,5.970003 -0.93294,1.458426 -2.20359,3.013776 -2.82368,3.456337 l -1.12742,0.804659 1.38276,1.206886 c 1.03672,0.904858 1.81898,1.170278 3.12587,1.060621 1.53479,-0.128783 1.90362,-0.434365 3.08625,-2.557123 z m 32.03146,1.597197 c -0.15393,-0.384662 -0.26816,-0.270376 -0.29133,0.291326 -0.0207,0.508286 0.093,0.793072 0.25323,0.63285 0.16023,-0.160232 0.17733,-0.576097 0.038,-0.924162 z m 30.12864,-0.503413 c -0.35779,-0.357788 -0.42054,-0.169526 -0.2108,0.63247 0.17049,0.651989 0.38904,0.870558 0.50944,0.509437 0.11597,-0.347867 -0.0183,-0.861716 -0.2986,-1.141907 z m 4.16983,0.505657 c 1.7184,-0.13095 2.01144,-0.659979 0.61167,-1.104255 -1.47899,-0.469425 -3.20956,0.173332 -3.20956,1.192043 0,0.609188 0.17617,0.765076 0.53144,0.470244 0.29229,-0.242587 1.22219,-0.493689 2.06645,-0.558022 z m 4.30742,-0.193174 c -0.4595,-0.459504 -1.38069,0.284776 -1.03826,0.838835 0.20353,0.329325 0.47323,0.320993 0.81952,-0.02504 0.28386,-0.283909 0.3823,-0.649981 0.21875,-0.813555 z m -39.09811,-2.250067 c -0.13374,-0.331492 -0.24321,-0.06025 -0.24321,0.602716 0,0.662984 0.10942,0.934207 0.24321,0.602715 0.13374,-0.331492 0.13374,-0.873934 0,-1.205431 z m -68.94032,0.530151 2.20306,-0.554737 -1.10662,-0.834727 c -0.67538,-0.509432 -1.30977,-0.66899 -1.62792,-0.409416 -0.2867,0.233918 -1.06373,0.851949 -1.72671,1.373421 -1.3939,1.096371 -0.82891,1.202821 2.25819,0.425455 z m 24.26123,-0.112263 c 0,-0.101668 -0.43427,-0.298405 -0.96501,-0.437205 -0.53075,-0.1388 -0.84342,-0.05563 -0.6948,0.184842 0.25954,0.419915 1.65981,0.632821 1.65981,0.252363 z m 36.01005,-0.869898 c -0.15392,-0.384662 -0.26816,-0.270376 -0.29132,0.291326 -0.0207,0.508281 0.093,0.793067 0.25323,0.63285 0.16023,-0.160232 0.17733,-0.576102 0.038,-0.924167 z m -28.77748,-0.632874 c 0.62284,-0.662984 1.02395,-1.205427 0.89135,-1.205427 -0.13259,0 -0.75068,0.542443 -1.37352,1.205427 -0.62285,0.662984 -1.02396,1.205431 -0.89136,1.205431 0.13259,0 0.75069,-0.542447 1.37353,-1.205431 z m -27.36323,0.403926 c -0.33149,-0.133743 -0.87393,-0.133743 -1.20542,0 -0.33149,0.133743 -0.0603,0.243213 0.60271,0.243213 0.66299,0 0.93421,-0.10947 0.60271,-0.243213 z m 26.5006,-1.006642 c 2.05009,-2.180826 3.26977,-4.592801 3.27168,-6.469876 0.003,-3.069579 -0.24672,-3.294092 -3.66607,-3.294092 h -3.08252 v 2.635587 c 0,2.480349 -1.173,6.043497 -1.98953,6.043497 -0.79748,0 -0.86222,-0.945367 -0.17704,-2.585234 0.39602,-0.947833 0.72005,-2.519947 0.72005,-3.49358 v -1.770249 l -2.49507,0.295516 c -1.37229,0.162544 -2.66753,0.572461 -2.87831,0.910961 -0.29749,0.477757 -0.58687,0.48934 -1.29331,0.05177 -0.82969,-0.513936 -0.90549,-0.411921 -0.8585,1.155382 0.07,2.336256 -0.86129,2.500977 -1.48742,0.263055 -0.45724,-1.634328 -0.51514,-1.684416 -0.56989,-0.493115 -0.0706,1.535286 -0.99677,1.78018 -1.36773,0.361641 -0.33077,-1.264901 -1.10405,-1.242145 -1.10405,0.03227 0,0.771414 -0.21422,0.928842 -0.94726,0.696186 -0.89558,-0.284246 -2.48063,0.558441 -5.07988,2.700724 -0.85783,0.707013 -3.67333,1.279416 -7.5942,1.543936 -0.72929,0.04922 -1.30428,0.306448 -1.27776,0.571628 0.0265,0.265174 0.29773,0.39439 0.60272,0.287135 0.30495,-0.107254 3.70066,-0.28911 7.54598,-0.40407 3.84531,-0.114961 7.07664,-0.293156 7.18074,-0.396028 0.10407,-0.102872 -0.0893,-0.522687 -0.42984,-0.932961 -0.52504,-0.632628 -0.4916,-0.697024 0.22009,-0.423913 0.74479,0.285788 0.76789,0.207863 0.20531,-0.692983 -0.453,-0.725397 -0.73969,-0.84853 -1.0047,-0.431523 -0.25448,0.400411 -0.37315,0.31873 -0.37821,-0.26031 -0.004,-0.464079 0.15537,-0.837775 0.35422,-0.830406 0.55627,0.02071 2.82072,2.529598 3.17733,3.520458 0.27654,0.768403 0.78305,0.861489 3.93532,0.723257 1.98985,-0.08727 3.61741,0.01686 3.61679,0.231414 -6.2e-4,0.214557 0.23748,0.242587 0.52916,0.06237 0.37267,-0.230354 0.36766,-0.02408 -0.0169,0.6948 -0.52863,0.987748 -0.45132,1.02253 2.27253,1.02253 2.45251,0 2.98214,-0.172705 4.06627,-1.325973 z m -23.56813,0.354224 c 0.32316,-0.0042 0.25496,-0.20661 -0.15999,-0.474771 -0.92427,-0.597297 -3.37521,-0.622967 -3.37521,-0.03516 0,0.531996 1.42376,0.960576 2.32975,0.701296 0.35317,-0.10109 0.89563,-0.187105 1.20543,-0.191151 z m 14.17386,-0.344495 c -1.00039,-0.104365 -2.51923,-0.102631 -3.3752,0.0039 -0.85596,0.106533 -0.0376,0.191922 1.8189,0.189755 1.85636,-0.0019 2.5567,-0.08929 1.5563,-0.193655 z m 47.25072,-4.108181 c -0.10696,-0.861885 -0.19447,-0.156716 -0.19447,1.567057 0,1.723759 0.0875,2.428937 0.19447,1.567053 0.10697,-0.861879 0.10697,-2.272231 0,-3.13411 z m -54.71362,3.658579 c -0.33149,-0.133744 -0.87393,-0.133744 -1.20543,0 -0.33149,0.133743 -0.0602,0.243213 0.60272,0.243213 0.66298,0 0.93421,-0.10947 0.60271,-0.243213 z m 46.00507,-1.247722 c -0.13374,-0.331492 -0.24321,-0.0603 -0.24321,0.602711 0,0.662984 0.10942,0.934208 0.24321,0.602716 0.13374,-0.331493 0.13374,-0.873935 0,-1.205427 z m 43.91989,0.752506 c -0.46408,-0.121269 -1.22351,-0.121269 -1.6876,0 -0.46408,0.121269 -0.0844,0.220529 0.8438,0.220529 0.92817,0 1.30788,-0.09921 0.8438,-0.220529 z m -62.113737,-2.801737 c 0,-0.265174 -0.310113,0.0603 -0.689083,0.723258 -0.37898,0.662984 -0.68909,1.422406 -0.68909,1.6876 0,0.265174 0.31011,-0.0603 0.68909,-0.723258 0.37898,-0.662984 0.689083,-1.422406 0.689083,-1.6876 z m -34.395263,0.120547 c 0.91132,-1.076369 0.91096,-1.078541 -0.0457,-0.276685 -0.53039,0.444526 -1.83225,0.896233 -2.89303,1.003829 l -1.92869,0.19563 1.9745,0.08105 c 1.51682,0.06227 2.18741,-0.170442 2.89303,-1.003834 z m 43.979739,-1.579816 c -0.14848,-0.14848 -0.418085,0.119151 -0.599137,0.594678 -0.261659,0.68719 -0.206274,0.742575 0.269942,0.269894 0.329518,-0.327061 0.477661,-0.716139 0.329229,-0.864596 z m -24.634429,-3.000815 c -0.11048,-0.729283 -0.20088,-0.132587 -0.20088,1.325969 0,1.45857 0.0904,2.055256 0.20088,1.325973 0.11048,-0.729283 0.11048,-1.922659 0,-2.651942 z m 72.8141,3.445515 c -0.16023,-0.160232 -0.5761,-0.177329 -0.92416,-0.03805 -0.38467,0.153922 -0.27038,0.26816 0.29132,0.291326 0.50828,0.02071 0.79307,-0.093 0.63285,-0.253231 z m 6.39106,-1.155199 c 1.27401,0 4.34729,-1.146993 4.34729,-1.622467 0,-0.223997 -2.41618,0.02553 -4.29397,0.443273 -1.19862,0.266716 -1.54843,0.213932 -1.29541,-0.195485 0.19433,-0.314443 0.0154,-0.687941 -0.4072,-0.850109 -0.41462,-0.159076 -0.75382,-0.568305 -0.75382,-0.909352 0,-0.95602 1.25238,-1.215261 2.24345,-0.464368 1.08803,0.824338 2.02715,0.925837 1.23477,0.133454 -0.44126,-0.441251 -0.39049,-0.772618 0.22207,-1.449468 0.43672,-0.4825967 0.66834,-1.0031887 0.51465,-1.1568747 -0.15368,-0.153682 -0.52162,0.173139 -0.81762,0.726215 -0.57537,1.0750637 -1.54863,1.3866317 -1.34808,0.4315697 0.0663,-0.3157427 -0.25838,-0.6569727 -0.72156,-0.7582847 -0.60212,-0.13172 -0.75919,0.03179 -0.55113,0.574074 0.18441,0.4805507 0.0279,0.7582897 -0.42762,0.7582897 -0.39526,0 -0.84944,0.488199 -1.00935,1.084885 -0.44987,1.678637 -0.37122,1.894494 0.58007,1.592563 0.55788,-0.177039 0.88399,-0.04142 0.88399,0.367469 0,0.418904 -0.39781,0.571969 -1.12507,0.432967 -0.68893,-0.131672 -1.12507,-0.556076 -1.12507,-1.094743 0,-0.483825 -0.19861,-1.002418 -0.44134,-1.152435 -0.25694,-0.158834 -0.29446,0.276493 -0.0897,1.041968 0.21817,0.815732 0.79742,1.439224 1.52622,1.642753 1.17299,0.327591 1.17282,0.328073 -0.12739,0.376089 -0.77041,0.02842 -1.50268,-0.296431 -1.79348,-0.795735 -0.46572,-0.799574 -0.49224,-0.79876 -0.50613,0.01541 -0.0178,1.049857 1.84944,1.838691 2.96721,1.253458 0.44665,-0.23387 1.48808,-0.425214 2.31426,-0.425214 z m 1.57481,0.64501 c -0.33149,-0.133743 -0.87393,-0.133743 -1.20543,0 -0.33149,0.133743 -0.0602,0.243213 0.60272,0.243213 0.66298,0 0.9342,-0.109422 0.60271,-0.243213 z m -72.58813,-3.17641 c -0.11491,-0.596691 -0.20897,-0.108507 -0.20897,1.084884 0,1.193372 0.094,1.68157 0.20897,1.084884 0.11491,-0.596686 0.11491,-1.573082 0,-2.169768 z m 74.63395,2.536919 c 0.1689,-0.273314 -0.0246,-0.354176 -0.45373,-0.189514 -0.83532,0.32056 -0.98816,0.666149 -0.2946,0.666149 0.24952,0 0.58628,-0.214509 0.7483,-0.47665 z m -93.93171,-1.060269 c -0.15392,-0.384662 -0.26816,-0.270376 -0.29132,0.291325 -0.0212,0.508287 0.093,0.793072 0.25323,0.63285 0.16023,-0.160231 0.17737,-0.576097 0.038,-0.924161 z m 36.783044,-0.63285 c 0,-0.265175 -0.210319,-0.156716 -0.467402,0.241094 -0.257083,0.397809 -0.467403,0.940232 -0.467403,1.205426 0,0.265174 0.21032,0.156716 0.467403,-0.241094 0.257083,-0.39781 0.467402,-0.940233 0.467402,-1.205426 z m 47.837296,0.03371 c 0.1062,-0.909578 0.0217,-1.547706 -0.18831,-1.418057 -0.37753,0.23334 -0.55594,3.071834 -0.19308,3.071834 0.1036,0 0.27524,-0.744203 0.38139,-1.653777 z m -31.09932,0.116839 c -0.15392,-0.384662 -0.26816,-0.270376 -0.29133,0.291326 -0.0207,0.508291 0.093,0.793072 0.25323,0.63285 0.16023,-0.160232 0.17733,-0.576092 0.038,-0.924162 z m 68.6211195,0.872706 c 0,-0.100127 -0.3797,-0.479828 -0.84379,-0.8438 -0.76476,-0.599763 -0.78181,-0.582705 -0.18205,0.182049 0.62989,0.803176 1.02584,1.058598 1.02584,0.661751 z M -80.08488,12.436553 c -0.15393,-0.384662 -0.26816,-0.270376 -0.29133,0.291326 -0.0207,0.508291 0.093,0.793072 0.25323,0.63285 0.16023,-0.160232 0.17733,-0.576092 0.038,-0.924161 z m -45.39964,-0.298646 c -0.14848,-0.148481 -0.53752,-3.08e-4 -0.8646,0.329228 -0.47265,0.476216 -0.41726,0.531582 0.2699,0.269895 0.47554,-0.181086 0.74313,-0.450691 0.59467,-0.599133 z m 26.59795,-1.419093 c -0.12127,-0.464079 -0.220529,-0.08438 -0.220529,0.8438 0,0.928178 0.09921,1.307889 0.220529,0.8438 0.121269,-0.464079 0.121269,-1.223511 0,-1.6876 z m 10.122598,0.753392 c -0.153922,-0.384662 -0.26816,-0.270376 -0.291325,0.291326 -0.02071,0.508286 0.09305,0.793072 0.25323,0.63285 0.160232,-0.160232 0.177329,-0.576097 0.03805,-0.924161 z m 52.950562,0.572577 c 0.16615,-0.268883 -0.19452,-0.478913 -0.81534,-0.474771 -0.89571,0.0058 -0.97196,0.09873 -0.39011,0.474771 0.8972,0.57981 0.84708,0.57981 1.20543,0 z m 5.78865,-1.75531 c 0.65521,-0.251448 0.64156,-0.3689607 -0.10894,-0.9383197 -0.81535,-0.618561 -0.81206,-0.651662 0.0662,-0.666236 0.50829,-0.0087 0.79586,-0.143616 0.63905,-0.300428 -0.15681,-0.156812 -0.77598,-0.129312 -1.37593,0.06112 -1.06777,0.338909 -1.07108,0.361449 -0.15686,1.068626 0.90204,0.6977367 0.89595,0.7134177 -0.17848,0.459022 -0.91958,-0.217736 -1.01384,-0.144579 -0.54368,0.4219377 0.45276,0.545559 0.40537,0.685322 -0.23252,0.685322 -0.66099,0 -0.69244,0.117561 -0.17959,0.671499 0.52673,0.568902 0.67521,0.530436 0.97177,-0.251786 0.1925,-0.507795 0.6871,-1.052611 1.09906,-1.21069 z m -91.72651,1.439041 c -0.32644,-0.132057 -0.97738,-0.1401 -1.44652,-0.01782 -0.46914,0.122232 -0.20203,0.230306 0.59354,0.24013 0.79558,0.0096 1.17942,-0.09021 0.85298,-0.222263 z m 92.76862,-0.407008 c 0,-0.39781 -0.1808,-0.723253 -0.40181,-0.723253 -0.22101,0 -0.40181,0.325472 -0.40181,0.723253 0,0.397809 0.1808,0.723257 0.40181,0.723257 0.22101,0 0.40181,-0.325472 0.40181,-0.723257 z m -87.94691,-0.07518 c -0.32644,-0.132105 -0.97738,-0.1401 -1.44651,-0.01782 -0.46914,0.122232 -0.20204,0.230306 0.59353,0.24013 0.79558,0.0096 1.17942,-0.0902 0.85298,-0.222263 z m 77.98203,-0.648069 c 0,-0.265174 -0.22977,-0.482173 -0.51062,-0.482173 -0.28083,0 -0.37653,0.216965 -0.21264,0.482173 0.1639,0.265175 0.39367,0.482169 0.51063,0.482169 0.11694,0 0.21263,-0.216965 0.21263,-0.482169 z m 13.01863,-0.292674 c 0,-0.10422 -0.32547,-0.189513 -0.72326,-0.189513 -0.3978,0 -0.72325,0.210174 -0.72325,0.467017 0,0.256891 0.32547,0.342135 0.72325,0.189513 0.39781,-0.15267 0.72326,-0.362796 0.72326,-0.467017 z m -84.00972,-0.05187 c -0.72453,-0.11 -2.0264,-0.112215 -2.89303,-0.0048 -0.86663,0.107302 -0.27384,0.197315 1.31734,0.20006 1.59117,0.0027 2.30023,-0.0851 1.57569,-0.1951 z m 82.19775,-1.3200157 c -0.16601,-0.277841 0.0706,-0.203047 0.52564,0.166203 0.45512,0.369299 0.91891,0.579979 1.03068,0.468222 0.3783,-0.378305 -0.46186,-1.24895 -1.52544,-1.580726 -0.93612,-0.292 -1.03953,-0.17468 -0.89878,1.0199 0.22347,1.8964257 0.23334,1.9117987 0.72676,1.1318127 0.24364,-0.3851437 0.30717,-0.9275707 0.14116,-1.2054267 z M -75.472,9.7758163 c -0.59669,-0.114912 -1.57309,-0.114912 -2.16978,0 -0.59668,0.114912 -0.1085,0.208971 1.08489,0.208971 1.19337,0 1.68157,-0.09401 1.08489,-0.208971 z m 35.1765,-1.167182 c -0.89039,-0.327254 -2.16456,0.412981 -1.78051,1.034412 0.12984,0.210126 0.7685,0.131287 1.41921,-0.175162 1.0081,-0.474771 1.06154,-0.601873 0.3613,-0.859235 z m -63.14244,0.685013 c -0.59669,-0.114912 -1.57309,-0.114912 -2.16977,0 -0.59669,0.114912 -0.10851,0.208971 1.08488,0.208971 1.19338,0 1.68157,-0.09401 1.08489,-0.208971 z m 21.92875,0.04898 c -0.16023,-0.160232 -0.5761,-0.177329 -0.92416,-0.03805 -0.384665,0.153922 -0.27038,0.26816 0.29132,0.291326 0.50829,0.02071 0.79307,-0.093 0.63285,-0.253231 z m -18.54438,-0.50713 c -0.32643,-0.132106 -0.97737,-0.140101 -1.44651,-0.01782 -0.46914,0.122233 -0.20204,0.230306 0.59354,0.240131 0.79558,0.0096 1.179421,-0.09021 0.85297,-0.222263 z m 14.938141,-0.03275 c -0.861885,-0.106965 -2.272236,-0.106965 -3.134116,0 -0.861879,0.106966 -0.156716,0.194474 1.567058,0.194474 1.723759,0 2.428937,-0.08751 1.567058,-0.194474 z m 43.033789,-0.615541 c 0.16389,-0.265174 0.0682,-0.482173 -0.21263,-0.482173 -0.28083,0 -0.51063,0.216965 -0.51063,0.482173 0,0.265175 0.0957,0.482169 0.21263,0.482169 0.11694,0 0.34672,-0.216965 0.51063,-0.482169 z m 4.00534,-0.736015 c -0.14849,-0.148433 -0.41809,0.11915 -0.59914,0.594677 -0.26166,0.68719 -0.20628,0.742575 0.26994,0.269943 0.32952,-0.327062 0.47766,-0.716145 0.32923,-0.864596 z m -26.90848,0.253856 c 0.39781,-0.257083 0.50628,-0.467402 0.2411,-0.467402 -0.26518,0 -0.80764,0.210319 -1.20543,0.467402 -0.39781,0.257084 -0.50628,0.467403 -0.24109,0.467403 0.26517,0 0.80763,-0.210319 1.20542,-0.467403 z m 27.81315,-0.572576 c -0.15393,-0.384662 -0.26816,-0.270376 -0.29133,0.291326 -0.0207,0.508286 0.093,0.793072 0.25323,0.63285 0.16023,-0.160232 0.17733,-0.576097 0.038,-0.924162 z m 8.22916,0.03805 c 0.59669,-0.223226 1.08488,-0.631111 1.08488,-0.906429 0,-0.551602 -3.29818,0.671919 -4.09845,1.520395 -0.48721,0.51656 0.56412,0.302355 3.01357,-0.613966 z m -11.87224,-0.791348 c 0.61213,-0.780521 0.58944,-0.79075 -0.30259,-0.13644 -0.53039,0.389045 -1.05475,0.76876 -1.16525,0.8438 -0.11048,0.07503 0.0255,0.13644 0.30259,0.13644 0.27693,0 0.80129,-0.379701 1.16525,-0.8438 z m -19.58944,-0.120547 c 0.60784,-0.261177 0.69697,-0.414377 0.24109,-0.414377 -0.39781,0 -1.15721,0.186479 -1.6876,0.414377 -0.60784,0.261177 -0.69697,0.414377 -0.24109,0.414377 0.39781,0 1.15721,-0.186479 1.6876,-0.414377 z m 22.11316,-0.241094 c -0.15267,-0.39781 -0.62126,-0.723258 -1.04137,-0.723258 -0.61882,0 -0.58615,0.13437 0.17213,0.707924 1.17813,0.891099 1.20548,0.89158 0.86924,0.01541 z m 17.42489,-0.884741 c 1.01993,-0.156186 0.85636,-0.206948 -0.55467,-0.172176 -1.10065,0.02697 -2.40251,-0.26267 -2.89302,-0.644004 -0.82563,-0.641842 -0.82365,-0.613383 0.0265,0.383265 0.50521,0.592116 0.76363,1.076577 0.57428,1.076577 -0.18937,0 -0.20214,0.229969 -0.0284,0.511026 0.20647,0.334045 0.5085,0.260985 0.87225,-0.211089 0.30602,-0.397136 1.20736,-0.821781 2.00295,-0.943595 z m -0.37166,0.834514 c -0.16023,-0.160231 -0.5761,-0.177329 -0.92416,-0.03805 -0.38466,0.153923 -0.27038,0.26816 0.29132,0.291326 0.50829,0.02071 0.79307,-0.093 0.63285,-0.253231 z m -36.64503,-0.482053 c -0.16024,-0.160232 -0.5761,-0.177377 -0.92417,-0.03805 -0.38466,0.153922 -0.27037,0.26816 0.29133,0.291326 0.50829,0.02071 0.79307,-0.09305 0.63285,-0.253231 z m 22.08921,-0.222937 c 0.4766,-0.771154 -0.0571,-1.06194 -1.25263,-0.682494 -0.83175,0.26397 -0.91873,0.430077 -0.39796,0.759898 0.88377,0.559732 1.26796,0.541715 1.6506,-0.0774 z m 9.07471,-0.209019 c -0.15267,-0.39781 -0.3628,-0.723258 -0.46702,-0.723258 -0.10422,0 -0.18951,0.325472 -0.18951,0.723258 0,0.39781 0.21017,0.723258 0.46706,0.723258 0.25689,0 0.34214,-0.325472 0.18952,-0.723258 z m -29.23524,-0.05023 c -0.16023,-0.160231 -0.5761,-0.177329 -0.92416,-0.03805 -0.38466,0.153923 -0.27038,0.26816 0.29132,0.291326 0.50829,0.02071 0.79308,-0.093 0.63285,-0.253231 z m 4.35521,-0.522147 c -0.461,-0.120691 -1.32891,-0.125074 -1.92869,-0.0096 -0.59977,0.115346 -0.2226,0.214076 0.83818,0.219421 1.06078,0.0053 1.55151,-0.089 1.09051,-0.209693 z m 11.08432,-0.508436 c -1.79006,-0.09276 -4.71925,-0.09276 -6.50932,0 -1.79006,0.09276 -0.32547,0.16866 3.25466,0.16866 3.58012,0 5.04472,-0.0759 3.25466,-0.16866 z m 14.12901,-1.354282 c -0.23363,-0.782255 -0.44342,-1.060312 -0.46625,-0.617915 -0.0462,0.897942 0.46842,2.462809 0.72544,2.205764 0.0911,-0.09107 -0.0255,-0.805599 -0.2592,-1.587849 z m 6.93548,-3.670253 c 0.6048,-1.02384 0.65362,-1.356137 0.18499,-1.259083 -0.35018,0.07253 -0.63666,-0.193607 -0.63666,-0.591397 0,-0.39781 0.25313,-0.723258 0.56253,-0.723258 0.30939,0 0.74335,-0.197508 0.96435,-0.43894 0.23724,-0.259154 0.12931,-0.281019 -0.26344,-0.05341 -0.45503,0.263681 -0.59471,0.173813 -0.44198,-0.284343 0.12281,-0.368431 0.42218,-0.673156 0.66527,-0.677215 0.83342,-0.01397 1.65494,-0.778301 2.41393,-2.246032 0.56555,-1.093664 0.59548,-1.375733 0.11713,-1.103941 -0.3534,0.200783 -0.15435,-0.10923 0.44236,-0.688972 0.59669,-0.579719 1.08489,-1.1902373 1.08489,-1.3567003 0,-0.166445 -0.14275,-0.159895 -0.31729,0.01445 -0.17449,0.174487 -0.6501,0.04816 -1.0569,-0.28126 -0.49698,-0.402145 -0.62919,-0.414281 -0.40296,-0.03708 0.18513,0.308856 0.16115,0.634309 -0.0534,0.723257 -0.4006,0.1661083 -2.68606,3.9081593 -5.25228,8.5997243 -0.79781,1.45856997 -1.34671,2.953367 -1.21977,3.321775 0.13317,0.386492 0.0145,0.536128 -0.28059,0.353742 -0.28126,-0.173861 -0.66841,-0.06203 -0.8603,0.248463 -0.23387,0.378449 -0.13837,0.434412 0.28968,0.169864 0.47632,-0.29436 0.5568,-0.160135 0.31666,0.528215 -0.38302,1.09797 2.56674,-2.22545203 3.74384,-4.218104 z m -3.10361,2.307013 c 0,-0.100127 0.3797,-0.47982803 0.8438,-0.84380003 0.76475,-0.599759 0.78181,-0.582705 0.18205,0.182048 -0.6299,0.80317703 -1.02585,1.05859803 -1.02585,0.66175203 z m 4.33954,-7.022066 c 0,-0.249522 0.21451,-0.586278 0.47665,-0.748302 0.27332,-0.1689 0.35418,0.02456 0.18952,0.453725 -0.32056,0.835324 -0.66615,0.988158 -0.66615,0.294601 z m -6.06231,4.482748 c 0.0634,-1.818178 0.0197,-2.871821 -0.0972,-2.341433 -0.11689,0.530387 -0.40985,1.208061 -0.65109,1.505941 -0.24124,0.297876 -0.30968,0.877614 -0.15209,1.28829697 0.15758,0.410669 0.0429,1.202084 -0.25506,1.758676 -0.61457,1.14832203 -0.18933,2.32373003 0.56707,1.56736103 0.26017,-0.260166 0.52494,-1.96066303 0.58835,-3.778842 z m -1.07341,-1.256549 c 0.11,-0.331492 0.0588,-2.121555 -0.11366,-3.97791 -0.2213,-2.381653 -0.34411,-2.807459 -0.41722,-1.446516 -0.0569,1.060775 -0.19915,2.850837 -0.31603,3.977915 -0.19525,1.882739 0.37743,2.860942 0.84686,1.446511 z m 1.67904,-3.345061 c -0.15392,-0.384661 -0.26816,-0.270375 -0.29132,0.291326 -0.0207,0.508287 0.093,0.793072 0.25323,0.63285 0.16023,-0.160231 0.17733,-0.576097 0.038,-0.924161 z m -2.40609,-6.0480863 c -0.12223,-0.469137 -0.23031,-0.202036 -0.24013,0.593536 -0.01,0.795581 0.0902,1.179424 0.22226,0.852974 0.13206,-0.326435 0.1401,-0.977374 0.0178,-1.44651 z m 11.82677,-0.06516 c -0.19019,-0.495673 -0.34743,-0.54761 -0.47737,-0.157727 -0.10658,0.31974 -0.42574,0.437976 -0.70927,0.262766 -0.28353,-0.17521 -0.38303,-0.104269 -0.22111,0.157727 0.48834,0.790149 1.72335,0.559641 1.40777,-0.262766 z m 2.28946,-6.091702 c 0,-0.265174 -0.21032,-0.156716 -0.4674,0.241094 -0.25709,0.39781 -0.46741,0.940238 -0.46741,1.205432 0,0.265174 0.21032,0.156715 0.46741,-0.241094 0.25708,-0.39781 0.4674,-0.940238 0.4674,-1.205432 z m 5.5244395,-9.88451 c 0.22409,-0.837765 0.18614,-0.984829 -0.12445,-0.482173 -0.24576,0.39781 -0.59196,1.2657 -0.7693,1.928684 -0.22409,0.837765 -0.18614,0.98483 0.12445,0.482174 0.24576,-0.39781 0.59196,-1.2657 0.7693,-1.928685 z m 0.89827,-2.410857 c 0.1387,-0.530388 0.0555,-0.964342 -0.18485,-0.964342 -0.24037,0 -0.43701,0.433978 -0.43701,0.964342 0,0.530387 0.0832,0.964342 0.18484,0.964342 0.10167,0 0.29836,-0.433979 0.43702,-0.964342 z m -3.18554,-1.05475 c -0.15392,-0.384662 -0.26816,-0.270376 -0.29132,0.291326 -0.0207,0.508291 0.0931,0.793072 0.25323,0.63285 0.16023,-0.160232 0.17733,-0.576093 0.038,-0.924162 z M -23.83105,-8.4610367 c -0.33886,-0.883089 0.10663,-8.5222573 0.59676,-10.2325883 0.17097,-0.596691 0.64054,-1.084889 1.04345,-1.084889 0.59718,0 0.67371,0.423238 0.41409,2.290315 -0.17516,1.25967 -0.45406,3.870646 -0.61982,5.802167 -0.30029,3.4991523 -0.85269,4.7411133 -1.43448,3.2249953 z m 0.65329,-3.7232783 c -0.11491,-0.596686 -0.20897,-0.108507 -0.20897,1.084884 0,1.1933773 0.094,1.6815753 0.20897,1.084889 0.11491,-0.596691 0.11491,-1.573087 0,-2.169773 z m 0.46124,-4.339542 c -0.13374,-0.331492 -0.24321,-0.0603 -0.24321,0.602716 0,0.662984 0.10942,0.934207 0.24321,0.60271 0.13374,-0.331492 0.13374,-0.873934 0,-1.205426 z"
     id="path825"
     inkscape:connector-curvature="0"
     inkscape:export-xdpi="73"
     inkscape:export-ydpi="73"
     inkscape:export-filename="C:\Users\ranvi\path825.png" />
</svg>
